<?xml version="1.0" encoding="iso-8859-1"?>
<!DOCTYPE svg PUBLIC "-//W3C//DTD SVG 1.1//EN" "http://www.w3.org/Graphics/SVG/1.1/DTD/svg11.dtd">
<svg xmlns="http://www.w3.org/2000/svg" xmlns:xlink="http://www.w3.org/1999/xlink" version="1.1" id="parcel" x="0px" y="0px" width="512px" height="512px" viewBox="0 0 612 612" style="enable-background:new 0 0 612 612;" xml:space="preserve">
<g>
	<g>
		<path d="M612,167.224c0-0.252-1.951-0.49-1.98-0.734c-0.045-0.393-1.002-0.787-1.113-1.165c-0.082-0.296-0.697-0.564-0.816-0.846    c-0.133-0.312-0.467-0.63-0.646-0.92c-0.17-0.29-0.504-0.534-0.72-0.794c-0.186-0.245-0.423-0.497-0.638-0.72    c-0.252-0.245-0.579-0.438-0.86-0.645c-0.208-0.156-0.394-0.334-0.616-0.468c-0.044-0.022-0.104-0.03-0.148-0.059    c-0.06-0.03-0.104-0.089-0.17-0.119L430.52,69.313l-20.336-10.995c-0.601-0.327-1.239-0.549-1.877-0.698L304.505,3    c-2.181-1.158-4.792-1.143-6.966,0.029L3.791,160.776c-0.044,0.022-0.074,0.06-0.119,0.089c-0.03,0.022-0.074,0.022-0.104,0.044    c-0.238,0.141-0.423,0.333-0.638,0.497c-0.282,0.208-0.579,0.393-0.824,0.638c-0.208,0.208-0.371,0.46-0.549,0.69    c-0.215,0.275-0.46,0.527-0.631,0.831c-0.156,0.267-0.245,0.557-0.363,0.838c-0.134,0.312-0.297,0.608-0.386,0.935    c-0.097,0.341,1.758,0.697,1.714,1.053c-0.037,0.282,1.743,0.549,1.743,0.838c0,0.015,0,0.03,0,0.052c0,0.015,0,0.03,0,0.044    v263.804H0c0.007,7.419,1.239,7.73,3.643,9.088l293.77,168.015c1.135,0.646,2.396,1.625,3.665,1.625    c1.239,0,2.486,0.022,3.606-0.601l299.756-169.18c2.434-1.357,3.703-1.536,3.71-8.955H612V167.32c0-0.015,0-0.03,0-0.044    C612,167.261,612,167.246,612,167.224z M18.466,180.059l274.509,158.317v251.978L18.466,432.074V180.059L18.466,180.059z     M307.814,338.384l56.326-30.093L597.162,179.94v252.097L307.814,590.488V338.384z M301.107,325.511l-73.25-41.569    l281.254-156.515l76.143,40.063L301.107,325.511z M423.427,82.341l69.072,37.348L214.711,274.275l-86.738-48.893L406.444,73.401    L423.427,82.341z M301.085,17.965l89.586,47.141L111.095,217.682l-88.444-50.191L301.085,17.965z" fill="#933EC5"/>
		<path d="M257.675,358.23L48.588,239.791c-2.3-1.313-3.502-1.291-5.787,0.037s-2.078,3.769-2.078,6.41v137.158    c0,2.671-0.646,5.134,1.677,6.455L249.507,508.09c1.135,0.646,1.884,0.964,3.146,0.964c1.291,0,4.192-0.333,5.342-1.009    c2.285-1.328,5.297-3.769,5.297-6.41V364.677C263.299,362.014,259.99,359.551,257.675,358.23z M248.46,488.889L55.562,379.079    V258.991L248.46,368.996V488.889z" fill="#933EC5"/>
	</g>
</g>
<g>
</g>
<g>
</g>
<g>
</g>
<g>
</g>
<g>
</g>
<g>
</g>
<g>
</g>
<g>
</g>
<g>
</g>
<g>
</g>
<g>
</g>
<g>
</g>
<g>
</g>
<g>
</g>
<g>
</g>
</svg>
