<?xml version="1.0" encoding="iso-8859-1"?>
<!-- Generator: Adobe Illustrator 19.0.0, SVG Export Plug-In . SVG Version: 6.00 Build 0)  -->
<svg xmlns="http://www.w3.org/2000/svg" xmlns:xlink="http://www.w3.org/1999/xlink" version="1.1" id="Layer_1" x="0px" y="0px" viewBox="0 0 512 512" style="enable-background:new 0 0 512 512;" xml:space="preserve" width="512px" height="512px">
<g>
	<g>
		<path d="M404.492,135.158V0.757H106.463v134.401H0v300.487h106.457v75.598h298.04v-75.598H512V135.158H404.492z M137.835,32.13    h235.284v103.025H137.835V32.13z M30.326,166.531h450.302v65.204H30.326V166.531z M373.124,404.273v31.373v44.225H137.829v-44.225    v-31.373v-58.029h235.295V404.273z M480.628,404.274h-76.132v-0.001v-58.032h43.155v-31.373H63.303v31.373h43.155v58.032H30.327    V263.109h450.302V404.274z" fill="#933EC5"/>
	</g>
</g>
<g>
	<g>
		<rect x="411.19" y="184.68" width="36.462" height="31.373" fill="#933EC5"/>
	</g>
</g>
<g>
	<g>
		<rect x="174.432" y="374.474" width="162.092" height="31.373" fill="#933EC5"/>
	</g>
</g>
<g>
	<g>
		<rect x="174.432" y="429.376" width="162.092" height="31.373" fill="#933EC5"/>
	</g>
</g>
<g>
</g>
<g>
</g>
<g>
</g>
<g>
</g>
<g>
</g>
<g>
</g>
<g>
</g>
<g>
</g>
<g>
</g>
<g>
</g>
<g>
</g>
<g>
</g>
<g>
</g>
<g>
</g>
<g>
</g>
</svg>
